<?xml version="1.0" encoding="UTF-8" standalone="no"?>
<!-- Created with Inkscape (http://www.inkscape.org/) -->
<svg xmlns:dc="http://purl.org/dc/elements/1.1/" xmlns:cc="http://creativecommons.org/ns#" xmlns:rdf="http://www.w3.org/1999/02/22-rdf-syntax-ns#" xmlns:svg="http://www.w3.org/2000/svg" xmlns="http://www.w3.org/2000/svg" xmlns:xlink="http://www.w3.org/1999/xlink" xmlns:sodipodi="http://sodipodi.sourceforge.net/DTD/sodipodi-0.dtd" xmlns:inkscape="http://www.inkscape.org/namespaces/inkscape" width="400" height="400" id="svg4533" version="1.1" inkscape:version="0.48.3.1 r9886" sodipodi:docname="snowman.svg">
  <defs id="defs4535">
    <filter color-interpolation-filters="sRGB" inkscape:collect="always" id="filter4422" x="-0.12026205" width="1.2405241" y="-0.11284857" height="1.225697">
      <feGaussianBlur inkscape:collect="always" stdDeviation="3.4673253" id="feGaussianBlur4424"/>
    </filter>
    <filter color-interpolation-filters="sRGB" inkscape:collect="always" id="filter4426" x="-0.20720495" width="1.4144099" y="-0.081969611" height="1.1639392">
      <feGaussianBlur inkscape:collect="always" stdDeviation="3.4673253" id="feGaussianBlur4428"/>
    </filter>
    <filter color-interpolation-filters="sRGB" inkscape:collect="always" id="filter4413" x="-0.11643753" width="1.2328751" y="-0.10460883" height="1.2092177">
      <feGaussianBlur inkscape:collect="always" stdDeviation="3.4673253" id="feGaussianBlur4415"/>
    </filter>
    <filter color-interpolation-filters="sRGB" inkscape:collect="always" id="filter4418">
      <feGaussianBlur inkscape:collect="always" stdDeviation="3.4673253" id="feGaussianBlur4420"/>
    </filter>
    <linearGradient inkscape:collect="always" id="linearGradient5065">
      <stop style="stop-color:#000080;stop-opacity:1;" offset="0" id="stop5067"/>
      <stop style="stop-color:#000080;stop-opacity:0;" offset="1" id="stop5069"/>
    </linearGradient>
    <linearGradient inkscape:collect="always" id="linearGradient5085">
      <stop style="stop-color:#000083;stop-opacity:1;" offset="0" id="stop5087"/>
      <stop style="stop-color:#000083;stop-opacity:0;" offset="1" id="stop5089"/>
    </linearGradient>
    <linearGradient inkscape:collect="always" xlink:href="#linearGradient5085" id="linearGradient3222" gradientUnits="userSpaceOnUse" x1="-2558.0879" y1="-14.0558" x2="-2603.7356" y2="-120.57475"/>
    <linearGradient inkscape:collect="always" xlink:href="#linearGradient5065" id="linearGradient3224" gradientUnits="userSpaceOnUse" gradientTransform="translate(3384.0098,648.65732)" x1="-2659.7314" y1="162.4178" x2="-2627.9119" y2="74.029465"/>
  </defs>
  <sodipodi:namedview id="base" pagecolor="#ffffff" bordercolor="#666666" borderopacity="1.0" inkscape:pageopacity="0.0" inkscape:pageshadow="2" inkscape:zoom="0.7" inkscape:cx="353.44404" inkscape:cy="578.51495" inkscape:document-units="px" inkscape:current-layer="layer1" showgrid="false" inkscape:window-width="1871" inkscape:window-height="1056" inkscape:window-x="49" inkscape:window-y="24" inkscape:window-maximized="1"/>
  <g inkscape:label="Camada 1" inkscape:groupmode="layer" id="layer1" transform="translate(0,-652.36218)">
    <g id="g3169" transform="matrix(0.35934445,0,0,0.35934445,-23.585615,488.84165)">
      <path inkscape:export-ydpi="300" inkscape:export-xdpi="300" inkscape:export-filename="/home/isac/Documents/Ocastudios/Bronze/ataque_a_torre_special/troops/santa.png" sodipodi:nodetypes="ccccccccccc" inkscape:connector-curvature="0" id="rect5049" d="m 384.72417,1451.0195 155.367,-52.9943 337.0086,11.1201 1.1256,23.568 c -5.4676,26.876 -26.9493,50.3463 -38.5012,62.5919 -49.7299,15.3127 -92.4588,4.4314 -152.319,23.3084 -16.9919,-1.7882 -22.1888,-15.3715 -30.3539,-25.9865 -20.8243,-5.0218 -41.8694,-7.6133 -64.0261,2.0227 -3.3268,6.8826 -6.9566,13.5228 -16.8846,15.1244 -40.4298,5.3303 -109.8896,-0.3331 -143.5593,-5.1832 -25.4419,-2.9451 -44.8068,-25.0361 -47.8571,-53.5715 z" style="fill:#ff0000;fill-opacity:1;stroke:#550000;stroke-width:4;stroke-linecap:round;stroke-linejoin:round;stroke-miterlimit:4;stroke-opacity:1;stroke-dashoffset:0;display:inline"/>
      <path inkscape:export-ydpi="300" inkscape:export-xdpi="300" inkscape:export-filename="/home/isac/Documents/Ocastudios/Bronze/ataque_a_torre_special/troops/santa.png" sodipodi:nodetypes="cccccccccc" inkscape:connector-curvature="0" id="rect5016" d="m 479.82137,1064.6234 335.3706,-12.1218 15.9852,88.2018 44.6765,162.1821 11.0591,69.8345 c -75.8919,39.9874 -153.9118,71.8886 -239.2592,75.9452 l -83.6167,-86.4355 -71.5272,67.2116 c -30.7117,-0.1147 -88.6137,-4.1583 -116.3156,-29.9164 -27.3033,-118.6436 31.7718,-247.7537 103.6273,-334.9015 z" style="fill:#ff0000;fill-opacity:1;stroke:#550000;stroke-width:4;stroke-linecap:round;stroke-linejoin:round;stroke-miterlimit:4;stroke-opacity:1;stroke-dashoffset:0;display:inline"/>
      <path inkscape:export-ydpi="300" inkscape:export-xdpi="300" inkscape:export-filename="/home/isac/Documents/Ocastudios/Bronze/ataque_a_torre_special/troops/santa.png" sodipodi:nodetypes="ccccccccccccc" inkscape:connector-curvature="0" id="rect5019" d="m 824.03567,1063.7893 c -28.8734,27.3085 -66.8347,33.3071 -103.6525,48.1905 l -23.5182,40.878 c -20.0355,5.9777 -36.36,11.935 -38.9523,31.3306 78.5672,22.2181 11.9033,19.3606 -20.3414,9.1055 -16.0977,0.6699 -19.6382,28.7418 3.8594,40.0098 -8.1092,7.498 -24.6342,25.2565 -24.792,48.5091 -2.4442,24.51 33.3325,68.1702 93.8372,58.2676 26.7496,-5.7932 49.9134,-15.4348 61.0318,-38.1525 25.1336,-2.8012 43.9268,-21.5593 42.1271,-63.3043 -1.1553,-1.6833 -2.356,-3.3216 -3.5653,-4.9422 8.1379,-21.6662 19.5529,-49.1893 26.6466,-77.4985 -10.4609,-17.83 -10.3417,-62.7749 -12.6804,-92.3936 z" style="opacity:0.3;fill:#000000;fill-opacity:1;stroke:none;display:inline"/>
      <path inkscape:export-ydpi="300" inkscape:export-xdpi="300" inkscape:export-filename="/home/isac/Documents/Ocastudios/Bronze/ataque_a_torre_special/troops/santa.png" sodipodi:nodetypes="ccccc" inkscape:connector-curvature="0" id="rect4310" d="m 704.72397,1114.5909 99.2857,-55 c 35.6339,105.7143 62.8763,211.4286 87.1429,317.1429 l -162.8571,45.7143 c 123.8298,-135.6144 54.7154,-258.0289 -23.5715,-307.8572 z" style="opacity:0.13168724;fill:#000000;fill-opacity:1;stroke:none;display:inline"/>
      <path inkscape:export-ydpi="300" inkscape:export-xdpi="300" inkscape:export-filename="/home/isac/Documents/Ocastudios/Bronze/ataque_a_torre_special/troops/santa.png" style="fill:#ff0000;fill-opacity:1;stroke:#550000;stroke-width:4;stroke-linecap:round;stroke-linejoin:round;stroke-miterlimit:4;stroke-opacity:1;stroke-dashoffset:0;display:inline" d="m 721.15267,1111.0195 c 35.1775,-14.7751 68.0716,-33.2607 95.6585,-60.3706 13.9522,6.4738 15.6169,17.1398 17.1987,28.2278 6.7714,47.4651 -17.8659,104.9183 -31.4285,142.8571 l -98.2144,-70.7143 c 5.5952,-12.2101 11.1905,-22.4639 16.7857,-40 z" id="path4318" inkscape:connector-curvature="0" sodipodi:nodetypes="ccsccc"/>
      <path inkscape:export-ydpi="300" inkscape:export-xdpi="300" inkscape:export-filename="/home/isac/Documents/Ocastudios/Bronze/ataque_a_torre_special/troops/santa.png" sodipodi:nodetypes="ccccc" inkscape:connector-curvature="0" id="rect5022" d="m 469.72417,1027.091 12.5001,36.7857 c -16.1905,18.5714 -31.4286,39.0476 -45.7143,61.4285 l -61.0715,3.2143 c 20.0484,-41.8814 58.607,-86.0122 94.2857,-101.4285 z" style="fill:#ff0000;fill-opacity:1;stroke:#550000;stroke-width:4;stroke-linecap:round;stroke-linejoin:round;stroke-miterlimit:4;stroke-opacity:1;stroke-dashoffset:0;display:inline"/>
      <path inkscape:export-ydpi="300" inkscape:export-xdpi="300" inkscape:export-filename="/home/isac/Documents/Ocastudios/Bronze/ataque_a_torre_special/troops/santa.png" inkscape:connector-curvature="0" id="rect5025" d="m 414.99757,1124.7457 c -19.4224,-1.041 -40.7087,3.4794 -51.2486,14.6495 -15.2707,21.1618 -11.8815,52.109 -1.5213,65.9373 l 1.8382,-0.7919 c -6.3966,28.8921 -1.0011,52.5144 9.8884,69.0611 17.4544,20.9798 56.1086,31.0589 73.1489,1.5076 8.4923,-20.585 -4.1506,-46.5941 -8.6839,-70.5265 l 11.9485,-5.9132 c 8.3252,-12.652 6.1423,-22.208 -5.0394,-29.1085 l 0.7924,-0.3391 c 12.2876,-8.2015 10.6597,-26.4876 2.0601,-34.8759 -7.5034,-5.5621 -19.8942,-8.8881 -33.1833,-9.6004 z" style="opacity:0.3;fill:#000000;fill-opacity:1;stroke:none;display:inline"/>
      <path inkscape:export-ydpi="300" inkscape:export-xdpi="300" inkscape:export-filename="/home/isac/Documents/Ocastudios/Bronze/ataque_a_torre_special/troops/santa.png" sodipodi:nodetypes="cccccc" inkscape:connector-curvature="0" id="rect4307" d="m 375.43837,1276.0195 c 24.5452,-82.2138 54.9276,-147.1444 105.6548,-210.0481 l 28.631,44.3338 c -91.5702,38.1616 -133.2608,194.5828 -105.7143,308.5715 l -27.1429,-21.4286 c -13.3429,-43.0495 -6.4844,-82.0588 -1.4286,-121.4286 z" style="opacity:0.13168724;fill:#000000;fill-opacity:1;stroke:none;display:inline"/>
      <path inkscape:export-ydpi="300" inkscape:export-xdpi="300" inkscape:export-filename="/home/isac/Documents/Ocastudios/Bronze/ataque_a_torre_special/troops/santa.png" style="fill:#fdfefd;fill-opacity:1;stroke:#550000;stroke-width:4;stroke-linecap:round;stroke-linejoin:round;stroke-miterlimit:4;stroke-opacity:1;stroke-dashoffset:0;display:inline" d="m 358.94857,1135.5591 c 17.5029,-19.3796 65.0643,-21.9375 83.2755,-9.5396 8.4792,7.7435 10.0699,25.575 -2.0457,34.2709 l -82.7048,39.901 c -10.2151,-12.9727 -13.5818,-43.0882 1.475,-64.6323 z" id="path4313" inkscape:connector-curvature="0" sodipodi:nodetypes="ccccc"/>
      <path inkscape:export-ydpi="300" inkscape:export-xdpi="300" inkscape:export-filename="/home/isac/Documents/Ocastudios/Bronze/ataque_a_torre_special/troops/santa.png" style="fill:#ff0000;fill-opacity:1;stroke:#550000;stroke-width:4;stroke-linecap:round;stroke-linejoin:round;stroke-miterlimit:4;stroke-opacity:1;stroke-dashoffset:0;display:inline" d="m 399.00997,1161.3767 c 12.5022,-0.5045 22.0705,1.9248 37.959,-1.966 13.1186,6.1168 16.1809,15.7314 7.3981,29.466 l -11.7857,6.4285 c 4.47,23.1798 16.9448,47.9604 8.5714,68.5715 -16.8018,29.8522 -54.9328,22.0873 -72.1428,2.5 -11.8909,-17.2816 -17.1247,-43.406 -7.2959,-76.4768 5.8809,-14.8677 21.1042,-22.0916 37.2959,-28.5232 z" id="path4315" inkscape:connector-curvature="0" sodipodi:nodetypes="cccccccc"/>
      <path inkscape:export-ydpi="300" inkscape:export-xdpi="300" inkscape:export-filename="/home/isac/Documents/Ocastudios/Bronze/ataque_a_torre_special/troops/santa.png" style="fill:#fdfefd;fill-opacity:1;stroke:#550000;stroke-width:4;stroke-linecap:round;stroke-linejoin:round;stroke-miterlimit:4;stroke-opacity:1;stroke-dashoffset:0;display:inline" d="m 705.08127,1152.4481 c 41.9014,14.2773 77.928,35.6661 101.7857,71.7857 1.7226,41.5145 -16.2796,60.1275 -40.3572,62.8572 l 4.0082,-13.6345 c -12.425,-42.0153 -56.5876,-80.0577 -104.7224,-89.2227 -4.9646,-15.1102 19.3788,-27.8041 39.2857,-31.7857 z" id="path4320" inkscape:connector-curvature="0" sodipodi:nodetypes="cccccc"/>
      <path inkscape:export-ydpi="300" inkscape:export-xdpi="300" inkscape:export-filename="/home/isac/Documents/Ocastudios/Bronze/ataque_a_torre_special/troops/santa.png" style="fill:#ff0000;fill-opacity:1;stroke:#550000;stroke-width:4;stroke-linecap:round;stroke-linejoin:round;stroke-miterlimit:4;stroke-opacity:1;stroke-dashoffset:0;display:inline" d="m 638.65267,1179.2338 c 22.2295,7.4364 37.0289,9.9194 53.9595,13.8233 36.4511,13.584 67.3045,43.6744 78.5405,80.8196 -7.4,32.2702 -32.7871,44.3049 -62.8571,51.0714 -57.8088,9.8306 -91.9781,-33.5254 -89.6429,-57.8572 0.151,-23.0834 15.9298,-40.6935 23.6777,-48.137 -22.4507,-11.186 -19.0581,-39.055 -3.6777,-39.7201 z" id="path4322" inkscape:connector-curvature="0" sodipodi:nodetypes="ccccccc"/>
      <path inkscape:export-ydpi="300" inkscape:export-xdpi="300" inkscape:export-filename="/home/isac/Documents/Ocastudios/Bronze/ataque_a_torre_special/troops/santa.png" sodipodi:nodetypes="ccccccccccccccc" inkscape:connector-curvature="0" id="rect5046" d="m 374.26727,1400.7744 c 32.4421,24.2807 73.8857,26.958 115.6541,28.8556 l 34.7277,-30.9273 c -22.3666,-90.8298 -28.7648,-176.7287 6.6993,-274.0286 l 72.8752,6.4494 c -29.0782,80.5959 -28.1284,156.8782 -7.4311,246.6831 l 55.4006,58.2111 c 83.038,-2.4438 160.4607,-24.3331 235.9466,-64.5377 13.4509,4.6625 17.9611,43.8256 0,58.2545 -92.8413,66.4838 -175.1446,67.3264 -256.7216,72.2573 -20.4185,-19.2685 -37.477,-51.2225 -56.161,-76.8156 l -19.1983,-0.5978 -31.8052,70.3482 c -44.864,3.3452 -105.6421,-17.6028 -150.9964,-38.423 -12.2286,-21.269 -13.41,-40.1707 1.0101,-55.7292 z" style="fill:#fdfefd;fill-opacity:1;stroke:#550000;stroke-width:4;stroke-linecap:round;stroke-linejoin:round;stroke-miterlimit:4;stroke-opacity:1;stroke-dashoffset:0;display:inline"/>
      <path inkscape:export-ydpi="300" inkscape:export-xdpi="300" inkscape:export-filename="/home/isac/Documents/Ocastudios/Bronze/ataque_a_torre_special/troops/santa.png" sodipodi:nodetypes="ccccccccccc" inkscape:connector-curvature="0" id="rect4328" d="m 471.15267,1075.3052 c -1.9057,-15.1282 -3.1822,-30.571 -12.458,-42.0142 l 14.167,-7.9982 17.6082,32.68 326.3971,-6.908 8.5713,6.3833 c -39.4843,22.156 -78.8894,44.3384 -110,69.2857 -24.8184,13.9101 -73.7993,19.0339 -118.5772,25.686 -11.5055,-4.5072 -24.5869,-4.2868 -38.9489,-0.2247 -9.8619,-4.3385 -20.2764,-7.71 -33.9024,-5.4613 -22.4246,-16.0004 -37.9193,-43.2621 -52.8571,-71.4286 z" style="opacity:0.3;fill:#000000;fill-opacity:1;stroke:none;display:inline"/>
      <path inkscape:export-ydpi="300" inkscape:export-xdpi="300" inkscape:export-filename="/home/isac/Documents/Ocastudios/Bronze/ataque_a_torre_special/troops/santa.png" sodipodi:nodetypes="ccccc" inkscape:connector-curvature="0" id="rect5052" d="m 436.88977,1504.5449 139.4011,4.0406 -7.0711,32.3249 c -52.5279,10.1015 -106.4027,11.4484 -161.6244,4.0406 z" style="fill:#4c4b4b;fill-opacity:1;stroke:#550000;stroke-width:4;stroke-linecap:round;stroke-linejoin:round;stroke-miterlimit:4;stroke-opacity:1;stroke-dashoffset:0;display:inline"/>
      <path inkscape:export-ydpi="300" inkscape:export-xdpi="300" inkscape:export-filename="/home/isac/Documents/Ocastudios/Bronze/ataque_a_torre_special/troops/santa.png" sodipodi:nodetypes="ccccc" inkscape:connector-curvature="0" id="rect5055" d="m 690.79557,1516.3767 c 52.9842,-11.6007 100.3358,-13.8137 149.6428,-19.2858 l 0,38.2143 c -49.3216,17.1584 -136.2111,21.3482 -169.2856,13.5715 z" style="fill:#4c4b4b;fill-opacity:1;stroke:#550000;stroke-width:4;stroke-linecap:round;stroke-linejoin:round;stroke-miterlimit:4;stroke-opacity:1;stroke-dashoffset:0;display:inline"/>
      <path inkscape:export-ydpi="300" inkscape:export-xdpi="300" inkscape:export-filename="/home/isac/Documents/Ocastudios/Bronze/ataque_a_torre_special/troops/santa.png" sodipodi:nodetypes="cc" inkscape:connector-curvature="0" id="path5060" d="m 568.29557,1126.0195 c -26.1851,57.5556 -32.3683,128.8177 -20,213.5715" style="fill:none;stroke:#550000;stroke-width:4;stroke-linecap:butt;stroke-linejoin:miter;stroke-miterlimit:4;stroke-opacity:1;stroke-dasharray:none;display:inline"/>
      <path inkscape:export-ydpi="300" inkscape:export-xdpi="300" inkscape:export-filename="/home/isac/Documents/Ocastudios/Bronze/ataque_a_torre_special/troops/santa.png" transform="matrix(1.0747927,0,0,1.3129796,3571.043,525.92722)" d="m -2505.7142,243.79077 c 0,81.26476 -78.9898,147.14285 -176.4286,147.14285 -97.4388,0 -176.4286,-65.87809 -176.4286,-147.14285 0,-81.26475 78.9898,-147.142851 176.4286,-147.142851 97.4388,0 176.4286,65.878101 176.4286,147.142851 z" sodipodi:ry="147.14285" sodipodi:rx="176.42857" sodipodi:cy="243.79077" sodipodi:cx="-2682.1428" id="path4967" style="fill:#f9dcb2;fill-opacity:1;stroke:#550000;stroke-width:4;stroke-linecap:round;stroke-linejoin:round;stroke-miterlimit:4;stroke-opacity:1;stroke-dasharray:none;stroke-dashoffset:0;display:inline" sodipodi:type="arc"/>
      <path inkscape:export-ydpi="300" inkscape:export-xdpi="300" inkscape:export-filename="/home/isac/Documents/Ocastudios/Bronze/ataque_a_torre_special/troops/santa.png" sodipodi:nodetypes="cccccccccccccscc" inkscape:connector-curvature="0" id="rect4969" d="m 475.20567,876.02309 c 2.4362,-18.2841 11.6354,-41.1139 18.2603,-54.8524 l 7.5248,-54.85757 19.4499,-22.01092 20.376,-8.22981 c -21.253,26.60904 -54.5311,102.1787 -15,162.9301 l 190.8216,41.8534 c 57.5217,2.9456 105.8253,-15.4781 133.814,-80.9952 14.1877,24.34 38.2669,45.0832 39.2994,74.2069 -8.2835,21.6709 -4.4363,32.7274 -2.4104,45.3776 14.3096,22.28101 27.3346,18.8713 40.3265,14.7969 -15.9074,49.19401 -50.6932,71.01401 -93.4329,81.30101 -4.075,-7.5817 -7.4494,-15.0232 -18.022,-23.9044 -32.5772,32.7493 -75.4637,55.0437 -130.7744,71.5237 -61.8125,18.4172 -125.6826,11.4433 -163.7658,0.1102 -53.5352,-58.1241 -86.7646,-152.53521 -46.467,-247.24951 z" style="fill:#fffdfe;fill-opacity:1;stroke:#550000;stroke-width:4;stroke-linecap:round;stroke-linejoin:round;stroke-miterlimit:4;stroke-opacity:1;stroke-dashoffset:0;display:inline"/>
      <path inkscape:export-ydpi="300" inkscape:export-xdpi="300" inkscape:export-filename="/home/isac/Documents/Ocastudios/Bronze/ataque_a_torre_special/troops/santa.png" sodipodi:nodetypes="ccccscsc" inkscape:connector-curvature="0" id="rect4972" d="m 504.36707,884.23379 c 30.5661,12.4963 33.4014,-12.4119 68.5303,-13.6245 13.7737,21.3058 41.5169,32.2211 67.8982,14.3388 31.5022,7.6524 50.0024,53.4035 86.7858,43.9286 -5.2063,33.8792 -31.3266,65.1455 -63.7959,65.182 -27.971,0.031 -58.2986,-16.0544 -71.2041,-50.182 -18.7059,17.1731 -39.3032,24.1075 -64.4246,5.388 -19.6497,-14.6422 -23.7664,-43.8855 -23.7897,-65.0309 z" style="fill:#fffdfe;fill-opacity:1;stroke:#550000;stroke-width:4;stroke-linecap:round;stroke-linejoin:round;stroke-miterlimit:4;stroke-opacity:1;stroke-dashoffset:0;display:inline"/>
      <path inkscape:export-ydpi="300" inkscape:export-xdpi="300" inkscape:export-filename="/home/isac/Documents/Ocastudios/Bronze/ataque_a_torre_special/troops/santa.png" transform="matrix(1.0393999,0,0,1.0389936,3494.3286,640.85522)" d="m -2801.9641,184.05864 c 0,7.74185 -5.1967,14.01786 -11.6072,14.01786 -6.4104,0 -11.6071,-6.27601 -11.6071,-14.01786 0,-7.74185 5.1967,-14.01786 11.6071,-14.01786 6.4105,0 11.6072,6.27601 11.6072,14.01786 z" sodipodi:ry="14.017857" sodipodi:rx="11.607142" sodipodi:cy="184.05864" sodipodi:cx="-2813.5713" id="path4975" style="fill:#458695;fill-opacity:1;stroke:#550000;stroke-width:4;stroke-linecap:round;stroke-linejoin:round;stroke-miterlimit:4;stroke-opacity:1;stroke-dasharray:none;stroke-dashoffset:0;display:inline" sodipodi:type="arc"/>
      <path inkscape:export-ydpi="300" inkscape:export-xdpi="300" inkscape:export-filename="/home/isac/Documents/Ocastudios/Bronze/ataque_a_torre_special/troops/santa.png" sodipodi:nodetypes="sssss" inkscape:connector-curvature="0" id="path5013" d="m 725.97407,868.51949 c -1.3533,8.3729 -8.2003,16.7858 -15.8928,16.7858 -7.6926,0 -13.3929,-6.34 -13.3929,-14.8215 0,-8.4815 7.6646,-18.75 16.7857,-18.75 7.6925,0 13.9285,7.9471 12.5,16.7857 z" style="fill:#458695;fill-opacity:1;stroke:#550000;stroke-width:4;stroke-linecap:round;stroke-linejoin:round;stroke-miterlimit:4;stroke-opacity:1;stroke-dashoffset:0;display:inline"/>
      <path inkscape:export-ydpi="300" inkscape:export-xdpi="300" inkscape:export-filename="/home/isac/Documents/Ocastudios/Bronze/ataque_a_torre_special/troops/santa.png" sodipodi:nodetypes="cc" inkscape:connector-curvature="0" id="path5058" d="m 571.74517,862.84549 c 8.9683,33.8754 53.4923,41.3739 72.9835,16.6675" style="fill:none;stroke:#550000;stroke-width:4;stroke-linecap:round;stroke-linejoin:miter;stroke-miterlimit:4;stroke-opacity:1;stroke-dasharray:none;display:inline"/>
      <path inkscape:export-ydpi="300" inkscape:export-xdpi="300" inkscape:export-filename="/home/isac/Documents/Ocastudios/Bronze/ataque_a_torre_special/troops/santa.png" sodipodi:nodetypes="ccccccc" inkscape:connector-curvature="0" id="rect4962" d="m 714.68177,616.87332 c 0.9894,-6.13984 5.2484,-11.26604 12.6305,-12.6954 10.5611,-13.58438 15.4362,-27.68566 18.642,-41.9387 l 79.8444,8.41962 c 56.3755,60.60885 105.2123,139.31661 92.4289,241.93152 L 585.88737,649.45073 c 35.6104,-22.68561 80.5337,-35.65857 128.7944,-32.57741 z" style="fill:#ff0000;fill-opacity:1;stroke:#550000;stroke-width:4;stroke-linecap:round;stroke-linejoin:round;stroke-miterlimit:4;stroke-opacity:1;stroke-dashoffset:0;display:inline"/>
      <path inkscape:export-ydpi="300" inkscape:export-xdpi="300" inkscape:export-filename="/home/isac/Documents/Ocastudios/Bronze/ataque_a_torre_special/troops/santa.png" sodipodi:nodetypes="cccccccsccccc" inkscape:connector-curvature="0" id="rect4959" d="m 589.92787,647.43043 c 67.0312,-11.00078 117.3608,-0.49734 157.9442,15.54097 72.6609,35.36613 135.933,79.42553 172.4271,148.27941 9.1955,18.42308 17.0157,36.50228 22.4085,53.97458 -1.637,38.2343 -20.9612,49.1336 -31.9468,72.9199 -9.6879,10.2772 -15.6594,7.5472 -22.8888,9.2199 l -0.401,-24.7167 c -30.2695,-72.3881 -100.8604,-129.66066 -170.9595,-160.36679 -64.0513,-28.057 -136.6509,-41.99147 -195.6475,-16.88634 -6.7803,7.08972 -13.0689,14.81685 -19.8297,23.25336 -9.2553,-11.18089 -5.5177,-32.46557 -5.9762,-49.70479 18.0057,-27.84473 33.4278,-33.94873 50.3202,-52.88738 7.3121,-8.74187 14.6336,-20.23482 44.5495,-18.62612 z" style="fill:#fdfefd;fill-opacity:1;stroke:#550000;stroke-width:4;stroke-miterlimit:4;display:inline"/>
      <path inkscape:export-ydpi="300" inkscape:export-xdpi="300" inkscape:export-filename="/home/isac/Documents/Ocastudios/Bronze/ataque_a_torre_special/troops/santa.png" transform="matrix(0.93426635,0,0,1.0071216,3218.4309,648.05635)" d="m -2530.7143,-116.20921 c 0,32.348102 -28.7817,58.571423 -64.2857,58.571423 -35.504,0 -64.2857,-26.223321 -64.2857,-58.571423 0,-32.34811 28.7817,-58.57143 64.2857,-58.57143 35.504,0 64.2857,26.22332 64.2857,58.57143 z" sodipodi:ry="58.571426" sodipodi:rx="64.285713" sodipodi:cy="-116.20921" sodipodi:cx="-2595" id="path5096" style="fill:#fdfefd;fill-opacity:1;stroke:#550000;stroke-width:4;stroke-linecap:round;stroke-linejoin:round;stroke-miterlimit:4;stroke-opacity:1;stroke-dasharray:none;stroke-dashoffset:0;display:inline" sodipodi:type="arc"/>
      <path inkscape:export-ydpi="300" inkscape:export-xdpi="300" inkscape:export-filename="/home/isac/Documents/Ocastudios/Bronze/ataque_a_torre_special/troops/santa.png" transform="matrix(0.78154186,0,0,0.84248745,2822.6821,631.78149)" d="m -2530.7143,-116.20921 c 0,32.348102 -28.7817,58.571423 -64.2857,58.571423 -35.504,0 -64.2857,-26.223321 -64.2857,-58.571423 0,-32.34811 28.7817,-58.57143 64.2857,-58.57143 35.504,0 64.2857,26.22332 64.2857,58.57143 z" sodipodi:ry="58.571426" sodipodi:rx="64.285713" sodipodi:cy="-116.20921" sodipodi:cx="-2595" id="path4965" style="opacity:0.2921811;fill:url(#linearGradient3222);fill-opacity:1;stroke:none;display:inline" sodipodi:type="arc"/>
      <path inkscape:export-ydpi="300" inkscape:export-xdpi="300" inkscape:export-filename="/home/isac/Documents/Ocastudios/Bronze/ataque_a_torre_special/troops/santa.png" sodipodi:nodetypes="ccccc" inkscape:connector-curvature="0" id="rect5043" d="m 365.79557,1329.5909 c 111.8587,50.6352 361.5924,36.7164 513.9285,-26.4285 l 8.5715,56.4285 c -165.4666,67.1006 -337.8696,78.7105 -518.5715,23.9286 z" style="fill:#000000;fill-opacity:1;stroke:#550000;stroke-width:4;stroke-linecap:round;stroke-linejoin:round;stroke-miterlimit:4;stroke-opacity:1;stroke-dashoffset:0;display:inline"/>
      <path inkscape:export-ydpi="300" inkscape:export-xdpi="300" inkscape:export-filename="/home/isac/Documents/Ocastudios/Bronze/ataque_a_torre_special/troops/santa.png" sodipodi:nodetypes="ccccc" inkscape:connector-curvature="0" id="rect5037" d="m 497.93847,1338.5195 c 40.2381,2.5867 80.4762,3.7516 120.7143,-2.1428 3.8888,31.5815 3.479,59.4785 0.7143,85.3571 -41.5826,3.8725 -81.7392,2.7537 -121.4286,0 -1.8657,-26.672 -4.5514,-52.8754 0,-83.2143 z" style="fill:#cccccc;fill-opacity:1;stroke:#550000;stroke-width:4;stroke-linecap:round;stroke-linejoin:round;stroke-miterlimit:4;stroke-opacity:1;stroke-dashoffset:0;display:inline"/>
      <path inkscape:export-ydpi="300" inkscape:export-xdpi="300" inkscape:export-filename="/home/isac/Documents/Ocastudios/Bronze/ataque_a_torre_special/troops/santa.png" sodipodi:nodetypes="ccccc" inkscape:connector-curvature="0" id="rect5040" d="m 521.86697,1363.1624 c 22.2796,0.01 45.4586,0.4674 69.6428,1.4286 l -0.3571,36.7857 c -22.6191,-0.026 -45.2381,-1.2878 -67.8571,-3.2143 z" style="fill:#000000;fill-opacity:1;stroke:#550000;stroke-width:4;stroke-linecap:round;stroke-linejoin:round;stroke-miterlimit:4;stroke-opacity:1;stroke-dashoffset:0;display:inline"/>
      <path inkscape:export-ydpi="300" inkscape:export-xdpi="300" inkscape:export-filename="/home/isac/Documents/Ocastudios/Bronze/ataque_a_torre_special/troops/santa.png" sodipodi:nodetypes="ccccc" inkscape:connector-curvature="0" id="rect5062" d="m 551.54207,671.67409 c 169.3094,-2.6464 304.1988,52.16743 382.8479,195.9696 -8.2142,21.9574 -18.4007,39.9703 -29.2944,56.5685 -54.8217,-132.39087 -240.9971,-230.72027 -402.5458,-202.53555 6.6648,-16.66751 31.4965,-33.33503 48.9923,-50.00255 z" style="opacity:0.12757203;fill:url(#linearGradient3224);fill-opacity:1;stroke:none;display:inline"/>
      <path inkscape:export-ydpi="300" inkscape:export-xdpi="300" inkscape:export-filename="/home/isac/Documents/Ocastudios/Bronze/ataque_a_torre_special/troops/santa.png" id="rect5093" d="m 831.57227,578.00107 -7.0313,2.75 c 21.978,30.42622 28.1553,99.82801 15.2813,136.71875 28.1848,25.13001 51.792,45.77618 68.1875,77.34375 l -8.9062,102.84372 c -40.269,-53.4619 -110.4631,-128.27812 -216.8126,-148.03122 42.3667,26.35657 124.3977,70.37952 148.0938,127.46872 -22.8608,33.0781 -50.6924,52.5679 -88.4375,62.7813 33.362,-2.4975 62.458,-8.5274 83.5625,-35.9688 l 47.4688,26.4688 c -36.9924,89.86831 -188.534,175.13841 -332.5313,155.34371 -62.1691,-41.3522 -70.5766,-106.31221 -77.0937,-183.15621 -20.0393,85.3394 13.2328,166.73341 57.8124,219.15621 104.3567,30.3233 214.3152,9.5422 294.4063,-68.4062 l 20.875,20.4687 c 40.4734,-10.9142 71.8544,-36.361 93.2813,-77.75001 -17.4122,13.27381 -47.0919,47.53341 -67.125,30.81251 -11.9462,-12.7616 -0.6588,-59.96611 26.0312,-80.21871 l 22.5625,-8.25 c 14.49,-23.1025 33.079,-44.6065 30.9687,-74.0938 l -23.0937,-57.28122 c 3.8276,-75.80618 -18.458,-155.98329 -87.5,-229 z" style="opacity:0.09465021;fill:#000000;fill-opacity:1;stroke:none;display:inline" inkscape:connector-curvature="0"/>
      <path inkscape:export-ydpi="300" inkscape:export-xdpi="300" inkscape:export-filename="/home/isac/Documents/Ocastudios/Bronze/ataque_a_torre_special/troops/santa.png" id="path5098" d="m 823.38477,479.93857 c 7.673,9.29198 12.2812,21.13518 12.2812,34.03125 0,29.85735 -24.6628,54.0625 -55.0624,54.0625 -18.619,0 -35.039,-9.10304 -45,-23 6.2763,25.9893 30.0254,45.34375 58.4062,45.34375 33.1702,0 60.0625,-26.42152 60.0625,-59 0,-22.09405 -12.3811,-41.33113 -30.6875,-51.4375 z" style="opacity:0.10699589;fill:#000000;fill-opacity:1;stroke:none;display:inline" inkscape:connector-curvature="0"/>
      <path inkscape:export-ydpi="300" inkscape:export-xdpi="300" inkscape:export-filename="/home/isac/Documents/Ocastudios/Bronze/ataque_a_torre_special/troops/santa.png" sodipodi:nodetypes="ccccccccc" inkscape:connector-curvature="0" id="rect5101" d="m 499.76607,899.29509 7.5815,6.422 6.2775,-2.5789 c -0.4913,34.6353 51.3366,45.0829 79.471,24.9462 23.2481,39.7227 78.3533,63.4815 129.2732,20.1207 l -3.7951,11.1059 13.9229,-3.8201 c -41.8238,66.76831 -101.6221,55.53121 -144.8477,8.0812 -44.4581,24.5647 -79.0201,-7.9357 -87.8833,-64.277 z" style="opacity:0.10699589;fill:#000000;fill-opacity:1;stroke:none;display:inline"/>
      <path inkscape:export-ydpi="300" inkscape:export-xdpi="300" inkscape:export-filename="/home/isac/Documents/Ocastudios/Bronze/ataque_a_torre_special/troops/santa.png" sodipodi:nodetypes="ccccc" inkscape:connector-curvature="0" id="rect5104" d="m 570.43847,862.09099 c 9.2967,7.7451 18.303,15.8291 30.3572,20.3571 16.7934,4.0302 29.9894,0.3515 43.5714,-2.5 -7.836,8.9484 -24.5081,17.6594 -45.7143,11.0714 -17.1282,-4.6998 -22.714,-16.7868 -28.2143,-28.9285 z" style="opacity:0.10699589;fill:#000000;fill-opacity:1;stroke:none;display:inline"/>
      <path inkscape:export-ydpi="300" inkscape:export-xdpi="300" inkscape:export-filename="/home/isac/Documents/Ocastudios/Bronze/ataque_a_torre_special/troops/santa.png" sodipodi:nodetypes="cccccc" inkscape:connector-curvature="0" id="rect5107" d="m 524.58057,743.65259 11.6893,-1.5722 c 24.5116,-14.49929 76.4284,-8.2327 107.2586,-3.47856 -39.8642,-3.1613 -91.0646,4.4582 -114.6901,16.30442 -6.0528,-0.38654 -15.9711,5.66932 -25.976,11.86962 z" style="opacity:0.10699589;fill:#000000;fill-opacity:1;stroke:none;display:inline"/>
      <path inkscape:export-ydpi="300" inkscape:export-xdpi="300" inkscape:export-filename="/home/isac/Documents/Ocastudios/Bronze/ataque_a_torre_special/troops/santa.png" sodipodi:nodetypes="cc" inkscape:connector-curvature="0" id="path5114" d="m 714.56447,616.82999 c 7.8661,-0.13283 14.8795,0.62095 20.8254,1.42594" style="fill:none;stroke:#550000;stroke-width:4;stroke-linecap:round;stroke-linejoin:miter;stroke-miterlimit:4;stroke-opacity:1;stroke-dasharray:none;display:inline"/>
      <path inkscape:export-ydpi="300" inkscape:export-xdpi="300" inkscape:export-filename="/home/isac/Documents/Ocastudios/Bronze/ataque_a_torre_special/troops/santa.png" sodipodi:nodetypes="ccccccccc" inkscape:connector-curvature="0" id="rect3521" d="m 526.74077,1506.964 c 22.9772,-3.1791 43.2911,-4.5309 53.6397,-19.1271 l 34.2895,-3.528 1.2547,4.787 -23.9827,4.5397 c -1.0027,9.035 -7.6072,12.4682 -15.2694,14.8437 l -9.0914,34.6831 -111.5511,7.5761 z" style="opacity:0.38683131;fill:#000000;fill-opacity:1;stroke:none;display:inline"/>
      <path inkscape:export-ydpi="300" inkscape:export-xdpi="300" inkscape:export-filename="/home/isac/Documents/Ocastudios/Bronze/ataque_a_torre_special/troops/santa.png" sodipodi:nodetypes="ccccccccccccc" inkscape:connector-curvature="0" id="rect4292" d="m 367.69437,1441.9154 c 52.2933,31.1598 118.2129,45.4423 152.3205,46.173 l 23.5352,-55.3213 c -10.8089,-3.0487 -27.9317,-7.0333 -45.9966,-7.361 l 1.4806,-3.2915 77.6838,2.0791 4.5448,13.2132 -21.1342,-1.5524 -30.8096,69.1954 -130.8149,-21.7183 -11.5145,-20.304 -13.9242,-5.4467 z" style="opacity:0.38683131;fill:#000000;fill-opacity:1;stroke:none;display:inline"/>
      <path inkscape:export-ydpi="300" inkscape:export-xdpi="300" inkscape:export-filename="/home/isac/Documents/Ocastudios/Bronze/ataque_a_torre_special/troops/santa.png" sodipodi:nodetypes="cccccccccc" inkscape:connector-curvature="0" id="rect4295" d="m 783.29537,1500.3052 26.4459,-1.0454 24.9828,-24.6776 c -53.4698,21.2455 -109.9462,25.4536 -166.1789,31.0428 l -5.6559,-6.4814 c 75.8868,-2.6151 152.8367,-24.3969 214.709,-61.5006 -7.2104,20.6324 -19.4737,39.8868 -37.16,57.6622 l 0,40 c -26.3096,10.4759 -54.7185,12.5546 -82.8572,15.7143 z" style="opacity:0.38683131;fill:#000000;fill-opacity:1;stroke:none;display:inline"/>
      <path inkscape:export-ydpi="300" inkscape:export-xdpi="300" inkscape:export-filename="/home/isac/Documents/Ocastudios/Bronze/ataque_a_torre_special/troops/santa.png" sodipodi:nodetypes="cccccc" inkscape:connector-curvature="0" id="rect4298" d="m 594.72407,1453.8767 38.6992,37.5881 c 78.0747,-2.6828 192.7848,-11.3089 265.5865,-83.3024 l -5.7143,17.8571 c -83.659,63.4977 -176.0121,68.7482 -263.5714,77.1429 z" style="opacity:0.38683131;fill:#000000;fill-opacity:1;stroke:none;display:inline"/>
      <path inkscape:export-ydpi="300" inkscape:export-xdpi="300" inkscape:export-filename="/home/isac/Documents/Ocastudios/Bronze/ataque_a_torre_special/troops/santa.png" sodipodi:nodetypes="cccccccc" inkscape:connector-curvature="0" id="rect4301" d="m 375.25977,1386.1981 c 28.7843,24.2099 74.4269,35.0252 113.7891,37.8482 l 8.5323,-4.8125 3.9598,6.6997 -9.6741,9.0146 c -40.2158,0.8671 -88.9441,-4.9633 -121.0714,-29.2857 l 4.0435,-6.2478 z" style="opacity:0.13168724;fill:#000000;fill-opacity:1;stroke:none;display:inline"/>
      <path inkscape:export-ydpi="300" inkscape:export-xdpi="300" inkscape:export-filename="/home/isac/Documents/Ocastudios/Bronze/ataque_a_torre_special/troops/santa.png" sodipodi:nodetypes="ccccccc" inkscape:connector-curvature="0" id="rect4304" d="m 633.65247,1418.8767 24.2647,6.6627 c 80.7706,-0.3572 154.5928,-28.5079 227.8782,-58.8056 l 2.8728,6.0609 8.5558,10.7248 c -76.3377,34.206 -156.2013,58.4218 -243.9286,60.3571 z" style="opacity:0.13168724;fill:#000000;fill-opacity:1;stroke:none;display:inline"/>
      <path inkscape:export-ydpi="300" inkscape:export-xdpi="300" inkscape:export-filename="/home/isac/Documents/Ocastudios/Bronze/ataque_a_torre_special/troops/santa.png" sodipodi:nodetypes="ccccccccc" inkscape:connector-curvature="0" id="rect4325" d="m 497.58107,1344.2338 5.4967,10.2068 c 0,22.5851 0.6233,43.937 3.4621,60.8511 35.357,2.0264 69.9694,2.1912 103.4238,-0.5391 2.3182,-18.6605 3.1213,-39.2148 1.6336,-62.6326 l 7.7696,-4.6719 0,73.9285 c -40.7335,2.8531 -80.9329,2.5022 -120.7144,-0.3571 -3.4325,-24.5701 -3.3459,-50.3133 -1.0714,-76.7857 z" style="opacity:0.3;fill:#000000;fill-opacity:1;stroke:none;display:inline"/>
      <path inkscape:export-ydpi="300" inkscape:export-xdpi="300" inkscape:export-filename="/home/isac/Documents/Ocastudios/Bronze/ataque_a_torre_special/troops/santa.png" sodipodi:nodetypes="cccccccccc" inkscape:connector-curvature="0" id="rect4331" d="m 774.78587,1186.8519 9.6375,7.0347 c 18.254,-27.5323 51.0377,-108.2388 21.9847,-133.6928 l 9.0107,-8.2012 c 46.6002,45.7861 0.5615,110.6058 -9.8233,169.7095 -1.2224,50.558 -17.8966,59.5147 -36.3655,63.6397 -38.5564,47.1662 -90.0785,53.2806 -132.835,19.1929 58,14.3374 102.1392,2.2131 115.8386,-68.0233 l -11.5539,-12.5691 c 25.3081,1.5758 31.4306,-16.0338 34.1062,-37.0904 z" style="opacity:0.18518521;fill:#000000;fill-opacity:1;stroke:none;display:inline"/>
      <path inkscape:export-ydpi="300" inkscape:export-xdpi="300" inkscape:export-filename="/home/isac/Documents/Ocastudios/Bronze/ataque_a_torre_special/troops/santa.png" sodipodi:nodetypes="cccccccc" inkscape:connector-curvature="0" id="rect4334" d="m 507.60027,1226.7529 c 4.0941,30.2922 -1.2176,79.9081 16.7773,83.307 18.3528,-0.8434 15.5319,-29.7333 18.4986,-41.5757 4.2161,14.4033 2.9237,39.3627 22.2703,40.5017 18.4307,-3.2086 12.5112,-51.8213 18.2153,-79.2025 1.48,47.8844 4.8467,79.8736 20.2031,106.066 -36.8114,5.1007 -70.7525,4.461 -103.5407,1.5152 -2.3839,-40.6916 -0.7165,-57.9091 7.5761,-110.6117 z" style="opacity:0.18518521;fill:#000000;fill-opacity:1;stroke:none;display:inline"/>
      <path inkscape:export-ydpi="300" inkscape:export-xdpi="300" inkscape:export-filename="/home/isac/Documents/Ocastudios/Bronze/ataque_a_torre_special/troops/santa.png" sodipodi:nodetypes="ccccccc" inkscape:connector-curvature="0" id="rect4337" d="m 679.32647,1197.9635 c 23.7917,2.0159 36.6845,13.5684 50.0026,24.7488 -44.978,21.0849 -68.8525,46.9713 -78.7919,80.3071 -12.8461,-4.0291 -20.4727,-15.0173 -25.2539,-29.7995 3.9092,-20.5607 13.2741,-38.8481 33.3063,-52.6909 -2.6578,-7.4203 -7.9179,-10.9372 -3.0187,-29.6929 z" style="opacity:0.2469136;fill:#ffff00;fill-opacity:1;stroke:none;display:inline;filter:url(#filter4418)"/>
      <path inkscape:export-ydpi="300" inkscape:export-xdpi="300" inkscape:export-filename="/home/isac/Documents/Ocastudios/Bronze/ataque_a_torre_special/troops/santa.png" sodipodi:nodetypes="ccccc" inkscape:connector-curvature="0" id="rect4348" d="m 728.57117,1118.4141 53.7906,-30.5572 c -12.5752,26.5165 -25.9792,53.033 -32.0723,79.5495 l -39.3959,-16.92 z" style="opacity:0.2469136;fill:#ffff00;fill-opacity:1;stroke:none;display:inline;filter:url(#filter4413)"/>
      <path inkscape:export-ydpi="300" inkscape:export-xdpi="300" inkscape:export-filename="/home/isac/Documents/Ocastudios/Bronze/ataque_a_torre_special/troops/santa.png" sodipodi:nodetypes="ccccc" inkscape:connector-curvature="0" id="rect4388" d="m 364.15877,1198.4686 c 7.6441,-21.0298 23.3667,-24.2872 37.3755,-31.3147 -19.6022,28.5576 -29.7252,70.4369 -13.637,101.5203 -8.4399,-1.5322 -13.6541,-0.7118 -21.7182,-20.7081 -3.1962,-11.4538 -7.861,-19.9702 -2.0203,-49.4975 z" style="opacity:0.2469136;fill:#ffff00;fill-opacity:1;stroke:none;display:inline;filter:url(#filter4426)"/>
      <path inkscape:export-ydpi="300" inkscape:export-xdpi="300" inkscape:export-filename="/home/isac/Documents/Ocastudios/Bronze/ataque_a_torre_special/troops/santa.png" sodipodi:nodetypes="ccccc" inkscape:connector-curvature="0" id="rect4391" d="m 457.09287,1038.8645 2.0203,13.6371 c -21.9404,17.0456 -38.4959,37.1684 -51.0127,59.599 l -18.1827,0.505 c 17.8192,-29.1528 38.6306,-55.3135 67.1751,-73.7411 z" style="opacity:0.2469136;fill:#ffff00;fill-opacity:1;stroke:none;display:inline;filter:url(#filter4422)"/>
      <path inkscape:export-ydpi="300" inkscape:export-xdpi="300" inkscape:export-filename="/home/isac/Documents/Ocastudios/Bronze/ataque_a_torre_special/troops/santa.png" sodipodi:nodetypes="ccccccccccc" inkscape:connector-curvature="0" id="rect4394" d="m 356.58257,1199.4788 c -8.3295,-22.5285 -9.7548,-44.2447 4.7287,-64.0894 l 17.567,-15.5672 c 22.3667,-31.0484 44.1284,-62.6261 76.9496,-84.5268 -28.6214,23.3867 -51.3523,50.7004 -63.8386,84.8439 -10.6711,9.1921 -34.0255,16.8128 -27.0843,49.1733 l 33.0938,-7.2095 -24.5219,13.3138 c -17.0272,63.6258 9.1617,93.1023 41.6945,108.4096 l -24.2436,-5.0507 c -26.7545,-7.2997 -34.4141,-38.468 -34.3452,-79.297 z" style="opacity:0.32510286;fill:#000000;fill-opacity:1;stroke:none;display:inline"/>
    </g>
  </g>
  <metadata>
    <rdf:RDF>
      <cc:Work>
        <dc:format>image/svg+xml</dc:format>
        <dc:type rdf:resource="http://purl.org/dc/dcmitype/StillImage"/>
        <cc:license rdf:resource="http://creativecommons.org/licenses/publicdomain/"/>
        <dc:publisher>
          <cc:Agent rdf:about="http://openclipart.org/">
            <dc:title>Openclipart</dc:title>
          </cc:Agent>
        </dc:publisher>
        <dc:title>Santa Claus</dc:title>
        <dc:date>2013-12-05T14:26:01</dc:date>
        <dc:description>Santa Claus! He is actually a character from Attack the Tower, a card game by Ocastudios, released under public domain (www.ocastudios.com/bronze/attack-the-tower). </dc:description>
        <dc:source>http://openclipart.org/detail/189356/santa-claus-by-isacvale-189356</dc:source>
        <dc:creator>
          <cc:Agent>
            <dc:title>isacvale</dc:title>
          </cc:Agent>
        </dc:creator>
        <dc:subject>
          <rdf:Bag>
            <rdf:li>santa claus</rdf:li>
            <rdf:li>christmas</rdf:li>
            <rdf:li>papai noel</rdf:li>
            <rdf:li>attack the tower</rdf:li>
            <rdf:li>ocastudios</rdf:li>
          </rdf:Bag>
        </dc:subject>
      </cc:Work>
      <cc:License rdf:about="http://creativecommons.org/licenses/publicdomain/">
        <cc:permits rdf:resource="http://creativecommons.org/ns#Reproduction"/>
        <cc:permits rdf:resource="http://creativecommons.org/ns#Distribution"/>
        <cc:permits rdf:resource="http://creativecommons.org/ns#DerivativeWorks"/>
      </cc:License>
    </rdf:RDF>
  </metadata>
</svg>
